<svg style="position: absolute; width: 0; height: 0; overflow: hidden;" version="1.1"
     xmlns="http://www.w3.org/2000/svg">
    <defs>
        <symbol id="icon-visibility_on" viewBox="0 0 24 24">
            <path d="M12 9q1.219 0 2.109 0.891t0.891 2.109-0.891 2.109-2.109 0.891-2.109-0.891-0.891-2.109 0.891-2.109 2.109-0.891zM12 17.016q2.063 0 3.539-1.477t1.477-3.539-1.477-3.539-3.539-1.477-3.539 1.477-1.477 3.539 1.477 3.539 3.539 1.477zM12 4.5q3.703 0 6.703 2.063t4.313 5.438q-1.313 3.375-4.313 5.438t-6.703 2.063-6.703-2.063-4.313-5.438q1.313-3.375 4.313-5.438t6.703-2.063z"/>
        </symbol>
        <symbol id="icon-visibility_off" viewBox="0 0 24 24">
            <path d="M11.859 9h0.141q1.219 0 2.109 0.891t0.891 2.109v0.188zM7.547 9.797q-0.563 1.125-0.563 2.203 0 2.063 1.477 3.539t3.539 1.477q1.078 0 2.203-0.563l-1.547-1.547q-0.375 0.094-0.656 0.094-1.219 0-2.109-0.891t-0.891-2.109q0-0.281 0.094-0.656zM2.016 4.266l1.266-1.266 17.719 17.719-1.266 1.266q-0.234-0.234-1.477-1.453t-1.898-1.875q-2.016 0.844-4.359 0.844-3.703 0-6.703-2.063t-4.313-5.438q0.516-1.219 1.617-2.695t2.133-2.273q-0.563-0.563-1.57-1.594t-1.148-1.172zM12 6.984q-0.938 0-1.828 0.375l-2.156-2.156q1.828-0.703 3.984-0.703 3.703 0 6.68 2.063t4.289 5.438q-1.125 2.766-3.422 4.734l-2.906-2.906q0.375-0.891 0.375-1.828 0-2.063-1.477-3.539t-3.539-1.477z"/>
        </symbol>
        <symbol id="icon-circle-down" viewBox="0 0 32 32">
            <path d="M32 16c0-8.837-7.163-16-16-16s-16 7.163-16 16 7.163 16 16 16 16-7.163 16-16zM3 16c0-7.18 5.82-13 13-13s13 5.82 13 13-5.82 13-13 13-13-5.82-13-13z"/>
            <path d="M9.914 11.086l-2.829 2.829 8.914 8.914 8.914-8.914-2.828-2.828-6.086 6.086z"/>
        </symbol>
        <symbol id="icon-earth" viewBox="0 0 32 32">
            <path d="M16 0c-8.837 0-16 7.163-16 16s7.163 16 16 16 16-7.163 16-16-7.163-16-16-16zM16 30c-1.967 0-3.84-0.407-5.538-1.139l7.286-8.197c0.163-0.183 0.253-0.419 0.253-0.664v-3c0-0.552-0.448-1-1-1-3.531 0-7.256-3.671-7.293-3.707-0.188-0.188-0.442-0.293-0.707-0.293h-4c-0.552 0-1 0.448-1 1v6c0 0.379 0.214 0.725 0.553 0.894l3.447 1.724v5.871c-3.627-2.53-6-6.732-6-11.489 0-2.147 0.484-4.181 1.348-6h3.652c0.265 0 0.52-0.105 0.707-0.293l4-4c0.188-0.188 0.293-0.442 0.293-0.707v-2.419c1.268-0.377 2.61-0.581 4-0.581 2.2 0 4.281 0.508 6.134 1.412-0.13 0.109-0.256 0.224-0.376 0.345-1.133 1.133-1.757 2.64-1.757 4.243s0.624 3.109 1.757 4.243c1.139 1.139 2.663 1.758 4.239 1.758 0.099 0 0.198-0.002 0.297-0.007 0.432 1.619 1.211 5.833-0.263 11.635-0.014 0.055-0.022 0.109-0.026 0.163-2.541 2.596-6.084 4.208-10.004 4.208z"/>
        </symbol>
        <symbol id="icon-login" viewBox="0 0 24 24">
            <path d="M11.016 6.984l-1.406 1.406 2.578 2.625h-10.172v1.969h10.172l-2.578 2.625 1.406 1.406 4.969-5.016zM20.016 18.984h-8.016v2.016h8.016q0.797 0 1.383-0.586t0.586-1.43v-13.969q0-0.844-0.586-1.43t-1.383-0.586h-8.016v2.016h8.016v13.969z"/>
        </symbol>
        <symbol id="icon-logout" viewBox="0 0 24 24">
            <path d="M3.984 5.016v13.969h8.016v2.016h-8.016q-0.797 0-1.383-0.609t-0.586-1.406v-13.969q0-0.797 0.586-1.406t1.383-0.609h8.016v2.016h-8.016zM17.016 6.984l4.969 5.016-4.969 5.016-1.406-1.453 2.578-2.578h-10.172v-1.969h10.172l-2.578-2.625z"/>
        </symbol>
        <symbol id="icon-clipboard" viewBox="0 0 32 32">
            <path d="M29 4h-9c0-2.209-1.791-4-4-4s-4 1.791-4 4h-9c-0.552 0-1 0.448-1 1v26c0 0.552 0.448 1 1 1h26c0.552 0 1-0.448 1-1v-26c0-0.552-0.448-1-1-1zM16 2c1.105 0 2 0.895 2 2s-0.895 2-2 2c-1.105 0-2-0.895-2-2s0.895-2 2-2zM28 30h-24v-24h4v3c0 0.552 0.448 1 1 1h14c0.552 0 1-0.448 1-1v-3h4v24z"/>
            <path d="M14 26.828l-6.414-7.414 1.828-1.828 4.586 3.586 8.586-7.586 1.829 1.828z"/>
        </symbol>
        <symbol id="icon-flag-ru" viewBox="0 0 640 480">
            <g fill-rule="evenodd" stroke-width="1pt">
                <path fill="#fff" d="M0 0h640v480H0z"/>
                <path fill="#0039a6" d="M0 160h640v320H0z"/>
                <path fill="#d52b1e" d="M0 320h640v160H0z"/>
            </g>
        </symbol>
        <symbol id="icon-flag-en" viewBox="0 0 640 480">
            <path fill="#012169" d="M0 0h640v480H0z"/>
            <path fill="#FFF"
                  d="M75 0l244 181L562 0h78v62L400 241l240 178v61h-80L320 301 81 480H0v-60l239-178L0 64V0h75z"/>
            <path fill="#C8102E"
                  d="M424 281l216 159v40L369 281h55zm-184 20l6 35L54 480H0l240-179zM640 0v3L391 191l2-44L590 0h50zM0 0l239 176h-60L0 42V0z"/>
            <path fill="#FFF" d="M241 0v480h160V0H241zM0 160v160h640V160H0z"/>
            <path fill="#C8102E" d="M0 193v96h640v-96H0zM273 0v480h96V0h-96z"/>
        </symbol>
        <symbol id="icon-settings" viewBox="0 0 24 24">
            <path d="M12 15.516q1.453 0 2.484-1.031t1.031-2.484-1.031-2.484-2.484-1.031-2.484 1.031-1.031 2.484 1.031 2.484 2.484 1.031zM19.453 12.984l2.109 1.641q0.328 0.234 0.094 0.656l-2.016 3.469q-0.188 0.328-0.609 0.188l-2.484-0.984q-0.984 0.703-1.688 0.984l-0.375 2.625q-0.094 0.422-0.469 0.422h-4.031q-0.375 0-0.469-0.422l-0.375-2.625q-0.891-0.375-1.688-0.984l-2.484 0.984q-0.422 0.141-0.609-0.188l-2.016-3.469q-0.234-0.422 0.094-0.656l2.109-1.641q-0.047-0.328-0.047-0.984t0.047-0.984l-2.109-1.641q-0.328-0.234-0.094-0.656l2.016-3.469q0.188-0.328 0.609-0.188l2.484 0.984q0.984-0.703 1.688-0.984l0.375-2.625q0.094-0.422 0.469-0.422h4.031q0.375 0 0.469 0.422l0.375 2.625q0.891 0.375 1.688 0.984l2.484-0.984q0.422-0.141 0.609 0.188l2.016 3.469q0.234 0.422-0.094 0.656l-2.109 1.641q0.047 0.328 0.047 0.984t-0.047 0.984z"/>
        </symbol>
        <symbol id="icon-bin" viewBox="0 0 32 32">
            <path d="M4 10v20c0 1.1 0.9 2 2 2h18c1.1 0 2-0.9 2-2v-20h-22zM10 28h-2v-14h2v14zM14 28h-2v-14h2v14zM18 28h-2v-14h2v14zM22 28h-2v-14h2v14z"/>
            <path d="M26.5 4h-6.5v-2.5c0-0.825-0.675-1.5-1.5-1.5h-7c-0.825 0-1.5 0.675-1.5 1.5v2.5h-6.5c-0.825 0-1.5 0.675-1.5 1.5v2.5h26v-2.5c0-0.825-0.675-1.5-1.5-1.5zM18 4h-6v-1.975h6v1.975z"/>
        </symbol>
        <symbol id="icon-chevron-left" viewBox="0 0 24 24">
            <path d="M11.672 3.891l-8.109 8.109 8.109 8.109-1.781 1.781-9.891-9.891 9.891-9.891z"/>
        </symbol>
        <symbol id="icon-menu" viewBox="0 0 24 24">
            <path d="M0 0h24v24H0z" fill="none"/>
            <path d="M3 18h18v-2H3v2zm0-5h18v-2H3v2zm0-7v2h18V6H3z"/>
        </symbol>
    </defs>
</svg>
